# xmcd
#
# Track frame offsets:
#	150
#	16355
#	39187
#	57560
#	90570
#	115260
#	140930
#	156757
#	192617
#	214410
#	237967
#	263175
#	281140
#	312307
#
# Disc length: 4367 seconds
#
# Revision: 0
# Processed by: cddbd v1.4PL0 Copyright (c) Steve Scherf et al.
# Submitted via: dBpowerAMP V4.0
#
DISCID=d6110d0e
DTITLE=James Wheeler - Can't Take It
DYEAR=2000
DGENRE=
TTITLE0=Who Loves You Baby?
TTITLE1=Wasting My Time
TTITLE2=The Weaker Sex
TTITLE3=This Can't Be Happening To Me
TTITLE4=Sometimes
TTITLE5=She's Gonna Pay
TTITLE6=Come Home
TTITLE7=You Make It Hard Baby
TTITLE8=I Can't Take It
TTITLE9=These Hard Hard Times
TTITLE10=Goin' To The Station
TTITLE11=My Baby's Gone
TTITLE12=Where Did You Stay Last Night?
TTITLE13=Sweet Thang
EXTD=
EXTT0=
EXTT1=
EXTT2=
EXTT3=
EXTT4=
EXTT5=
EXTT6=
EXTT7=
EXTT8=
EXTT9=
EXTT10=
EXTT11=
EXTT12=
EXTT13=
PLAYORDER=
